<svg width="512" height="512" viewBox="0 0 512 512" fill="none" xmlns="http://www.w3.org/2000/svg">
<rect width="512" height="512" rx="100" fill="#77F377"/>
<path d="M436.167 331.333L357.833 409.667L303 354.833L326.5 331.333L357.833 362.667L412.667 307.833L436.167 331.333ZM256 206C268.465 206 280.42 210.952 289.234 219.766C298.048 228.58 303 240.535 303 253C303 265.465 298.048 277.42 289.234 286.234C280.42 295.048 268.465 300 256 300C243.535 300 231.58 295.048 222.766 286.234C213.952 277.42 209 265.465 209 253C209 240.535 213.952 228.58 222.766 219.766C231.58 210.952 243.535 206 256 206ZM256 135.5C334.333 135.5 401.23 184.223 428.333 253C424.417 263.183 419.56 272.74 413.92 281.983C404.75 276.446 394.672 272.574 384.153 270.547L394.18 253C381.517 227.145 361.855 205.362 337.428 190.126C313.001 174.89 284.789 166.813 256 166.813C227.211 166.813 198.999 174.89 174.572 190.126C150.145 205.362 130.483 227.145 117.82 253C130.484 278.852 150.147 300.632 174.575 315.865C199.002 331.097 227.213 339.17 256 339.167L274.957 338.07C272.763 345.903 271.667 354.207 271.667 362.667V369.873L256 370.5C177.667 370.5 110.77 321.777 83.6667 253C110.77 184.223 177.667 135.5 256 135.5Z" fill="white"/>
</svg>
