<svg width="376" height="376" viewBox="0 0 376 376" fill="none" xmlns="http://www.w3.org/2000/svg">
<path d="M368.167 266.333L289.833 344.667L235 289.833L258.5 266.333L289.833 297.667L344.667 242.833L368.167 266.333ZM188 141C200.465 141 212.42 145.952 221.234 154.766C230.048 163.58 235 175.535 235 188C235 200.465 230.048 212.42 221.234 221.234C212.42 230.048 200.465 235 188 235C175.535 235 163.58 230.048 154.766 221.234C145.952 212.42 141 200.465 141 188C141 175.535 145.952 163.58 154.766 154.766C163.58 145.952 175.535 141 188 141ZM188 70.5C266.333 70.5 333.23 119.223 360.333 188C356.417 198.183 351.56 207.74 345.92 216.983C336.749 211.446 326.672 207.574 316.153 205.547L326.18 188C313.517 162.145 293.855 140.362 269.428 125.126C245.001 109.89 216.789 101.813 188 101.813C159.211 101.813 130.999 109.89 106.572 125.126C82.1451 140.362 62.4826 162.145 49.82 188C62.4841 213.852 82.1475 235.632 106.575 250.865C131.002 266.097 159.213 274.17 188 274.167L206.957 273.07C204.763 280.903 203.667 289.207 203.667 297.667V304.873L188 305.5C109.667 305.5 42.77 256.777 15.6667 188C42.77 119.223 109.667 70.5 188 70.5Z" fill="#77F377"/>
</svg>
